<?xml version="1.0" encoding="utf-8"?>
<!-- Generator: Adobe Illustrator 27.2.0, SVG Export Plug-In . SVG Version: 6.00 Build 0)  -->
<svg version="1.1" id="Layer_1" xmlns="http://www.w3.org/2000/svg" xmlns:xlink="http://www.w3.org/1999/xlink" x="0px" y="0px"
	 viewBox="0 0 2500 2000" style="enable-background:new 0 0 2500 2000;" xml:space="preserve">
<style type="text/css">
	.st0{fill:#AEC1E8;}
</style>
<g>
	<path class="st0" d="M648.3,1917.8c79.7,27.4,171.3,42.9,268.8,42.9c164.1,0,311.6-44.1,413.4-114.4c72.3,52.8,161.8,84,258.6,84
		c39.5,0,77.8-5.2,114.2-14.9c92.5,33,199.6,51.8,313.9,51.8c127.4,0,245.9-23.4,345.2-63.7c41.7,19.4,88,35.3,137.6,46.9V0
		c-165.7,6.5-311.7,58-406.7,135.1c-61.6-33-132.2-51.7-207.1-51.7c-86.6,0-167.3,25-235.2,68c-85.4-26.8-181.9-41.8-284-41.8
		c-86,0-167.9,10.7-242.6,30c-100-59.3-235.4-95.8-384.6-95.8c-154.4,0-294.2,39.1-395,102.3C258.2,65.8,136.3,13.5,0,7.1V1965
		c79.7,22.5,168.2,35.1,261.4,35.1C407.2,2000,541.4,1969.3,648.3,1917.8z"/>
</g>
</svg>
